<svg version="1.1" id="Layer_1" xmlns="http://www.w3.org/2000/svg" xmlns:xlink="http://www.w3.org/1999/xlink" x="0px" y="0px"
	 width="100%" viewBox="0 0 512 512" enable-background="new 0 0 512 512" xml:space="preserve">
<path fill="#E54C3C" opacity="1.000000" stroke="none" 
	d="
M170.000000,1.000001 
	C180.020889,1.000000 190.041794,1.000000 200.293411,1.367736 
	C201.196609,2.146732 201.826279,2.809541 202.547836,2.932293 
	C218.642334,5.670377 234.771759,8.209674 250.843567,11.073011 
	C272.363220,14.906934 293.816620,19.113728 315.341187,22.918802 
	C337.206360,26.784092 359.138092,30.271580 381.013275,34.081966 
	C399.331451,37.272758 417.623199,40.620426 435.900024,44.040859 
	C443.674500,45.495815 451.381073,47.313503 458.702179,48.978138 
	C454.334412,48.534077 452.490845,50.507339 451.904663,54.252628 
	C451.416107,57.374565 450.552338,60.436100 450.005096,63.550804 
	C441.995056,109.137314 433.972229,154.721634 426.030823,200.320145 
	C418.975861,240.829056 411.969727,281.346741 405.107147,321.888489 
	C404.547974,325.191833 403.139862,326.157959 399.826355,325.711578 
	C398.650970,325.352600 397.848419,325.126221 397.031250,324.984344 
	C350.440155,316.895782 303.833954,308.893250 257.259979,300.707153 
	C219.215530,294.020203 181.219467,287.058167 143.179520,280.345123 
	C133.297791,278.601318 123.452965,277.828552 116.082008,286.506287 
	C122.879265,247.320801 129.797791,208.558502 136.482666,169.755951 
	C140.769028,144.875549 144.710983,119.935814 148.886383,94.572098 
	C150.155045,85.060875 151.138855,75.967346 152.581177,66.947121 
	C154.895172,52.475445 157.438293,38.038921 160.032196,23.614086 
	C161.394287,16.039410 161.801361,7.958055 169.307419,3.086601 
	C169.787491,2.775046 169.780441,1.712947 170.000000,1.000001 
M190.304749,245.182541 
	C201.117096,247.114243 211.928421,249.051559 222.741959,250.976639 
	C254.858109,256.694092 286.950470,262.550537 319.103149,268.054688 
	C333.177032,270.463959 347.374817,272.149628 361.516418,274.163208 
	C365.447510,274.722992 367.878998,272.855042 369.162811,269.306854 
	C369.894775,267.283875 370.663483,265.236237 371.050415,263.132507 
	C373.700104,248.726883 376.316528,234.314468 378.817993,219.882477 
	C381.006012,207.258865 383.433380,194.656113 384.986237,181.950180 
	C386.049377,173.251358 383.125793,170.133591 374.523712,168.656219 
	C367.472961,167.445312 360.355347,166.620209 353.310272,165.380371 
	C317.739105,159.120331 282.190979,152.729111 246.615952,146.491302 
	C229.902679,143.560760 213.174408,140.690521 196.397781,138.158417 
	C189.234848,137.077301 186.039078,139.666351 184.154495,146.693222 
	C183.638397,148.617554 183.368423,150.609772 183.020721,152.577087 
	C180.471558,167.000488 177.794006,181.403015 175.430084,195.856796 
	C173.391296,208.322525 171.594315,220.831451 169.933914,233.353561 
	C169.279495,238.288986 172.298431,241.189072 176.755676,242.395264 
	C180.921936,243.522720 185.211838,244.193359 190.304749,245.182541 
M210.972702,41.418835 
	C208.318054,41.237915 205.657898,40.849979 203.009964,40.920658 
	C198.023911,41.053738 194.409973,43.930019 193.929367,47.820412 
	C193.222427,53.543095 195.525131,57.319408 201.094330,58.646744 
	C206.752090,59.995182 212.504150,60.966736 218.236923,61.978550 
	C265.135345,70.255959 312.023987,78.590332 358.949921,86.709259 
	C373.207306,89.176010 387.560883,91.101479 401.893494,93.110260 
	C406.568787,93.765518 409.419708,91.478561 410.543732,86.798012 
	C411.661957,82.141747 410.119293,78.890640 405.793121,77.135025 
	C402.729858,75.891922 399.563995,74.714806 396.331329,74.110313 
	C385.531952,72.090881 374.673462,70.390152 363.852692,68.481949 
	C313.181122,59.546230 262.514557,50.581963 210.972702,41.418835 
M227.203125,90.184967 
	C223.003906,91.612740 220.464935,94.411995 220.284637,98.949509 
	C220.101318,103.562416 223.451843,105.831505 226.894257,107.477058 
	C229.684448,108.810844 232.879730,109.446518 235.966187,109.988182 
	C266.771759,115.394455 297.586456,120.749527 328.411346,126.044632 
	C338.564453,127.788734 348.716675,129.648331 358.942139,130.818924 
	C365.061310,131.519440 368.848175,126.904266 368.244202,120.782494 
	C367.745941,115.732079 364.637390,112.981483 358.420807,111.921074 
	C329.886597,107.053757 301.365326,102.110184 272.822266,97.295563 
	C257.906097,94.779518 242.954544,92.473343 227.203125,90.184967 
z"/>
<path fill="#35495D" opacity="1.000000" stroke="none" 
	d="
M148.807327,95.022682 
	C144.710983,119.935814 140.769028,144.875549 136.482666,169.755951 
	C129.797791,208.558502 122.879265,247.320801 115.881775,286.875366 
	C112.784721,304.970703 116.829659,308.951233 126.607407,313.755280 
	C127.176628,314.034973 127.603981,314.603363 127.998734,315.425415 
	C125.227814,332.092285 122.555527,348.371155 119.586548,364.875488 
	C117.769417,365.685425 116.293808,366.469940 114.721352,366.822449 
	C103.220573,369.400543 99.484055,374.156067 99.895187,385.915588 
	C99.952927,387.566986 100.113159,389.214844 99.781143,390.888123 
	C96.256584,391.455688 92.883522,391.368469 90.143112,392.642273 
	C66.606377,403.582855 52.807426,421.532654 50.883465,447.940948 
	C50.757195,449.674072 49.108284,451.296234 48.110703,452.555542 
	C45.298195,436.016663 42.627300,419.877167 39.768543,403.771088 
	C34.599384,374.648376 29.234901,345.560242 24.104074,316.430878 
	C17.278873,277.681976 10.627840,238.902420 3.789855,200.155823 
	C3.353532,197.683441 1.952338,195.381317 1.000001,193.000000 
	C1.000000,181.645767 1.000000,170.291550 1.376755,158.474564 
	C2.211377,157.189362 2.855507,156.418503 3.099633,155.536880 
	C8.037362,137.705139 19.005281,124.912888 35.684822,117.164795 
	C52.654926,109.281738 71.203621,107.512779 89.289856,104.059311 
	C99.958473,102.022194 110.709351,100.395988 121.450554,98.764923 
	C130.549103,97.383308 139.686905,96.260193 148.807327,95.022682 
z"/>
<path fill="#000000" opacity="1.000000" stroke="none" 
	d="
M513.000000,136.000000 
	C513.000000,261.594513 513.000000,387.189056 513.000000,513.000000 
	C387.977448,513.000000 262.954742,513.000000 137.524689,512.615784 
	C137.636215,511.874969 138.117569,511.287720 138.679596,511.196228 
	C147.642563,509.737427 156.640518,508.482086 165.582397,506.907288 
	C199.412979,500.949005 233.231659,494.922607 267.044312,488.863159 
	C301.833435,482.628784 336.622864,476.394592 371.385406,470.014465 
	C382.744873,467.929626 394.076416,465.622498 405.308350,462.945587 
	C410.195953,461.780670 413.610840,458.251434 415.322083,453.083618 
	C415.737396,452.643951 415.900848,452.323212 416.035187,452.006348 
	C416.006073,452.010223 416.051880,452.047028 416.370850,451.878601 
	C417.677795,451.154266 418.603821,450.321960 419.663147,450.084412 
	C433.567383,446.966644 443.787750,438.643097 452.267914,427.600616 
	C458.840973,419.041534 463.038940,409.535828 464.991638,398.546814 
	C466.088043,391.670563 467.023865,385.188812 468.187195,378.748138 
	C471.755402,358.993530 475.417786,339.255981 479.030060,319.509308 
	C481.675812,305.046326 484.317413,290.582550 486.928986,276.113342 
	C488.988190,264.704468 491.042480,253.294342 493.020447,241.871185 
	C495.809998,225.761078 498.482330,209.630646 501.287476,193.523300 
	C504.149048,177.091782 507.041962,160.664902 510.093933,144.268158 
	C510.622192,141.430130 512.009521,138.751999 513.000000,136.000000 
z"/>
<path fill="#C03A2B" opacity="1.000000" stroke="none" 
	d="
M513.000000,135.531342 
	C512.009521,138.751999 510.622192,141.430130 510.093933,144.268158 
	C507.041962,160.664902 504.149048,177.091782 501.287476,193.523300 
	C498.482330,209.630646 495.809998,225.761078 493.020447,241.871185 
	C491.042480,253.294342 488.988190,264.704468 486.928986,276.113342 
	C484.317413,290.582550 481.675812,305.046326 479.030060,319.509308 
	C475.417786,339.255981 471.755402,358.993530 468.187195,378.748138 
	C467.023865,385.188812 466.088043,391.670563 464.733459,398.228516 
	C464.271393,397.345337 464.016602,396.369934 463.992188,395.388733 
	C463.156158,361.784546 445.301331,333.539154 405.649048,327.910980 
	C403.772064,327.644562 402.008698,326.577698 400.192413,325.883606 
	C403.139862,326.157959 404.547974,325.191833 405.107147,321.888489 
	C411.969727,281.346741 418.975861,240.829056 426.030823,200.320145 
	C433.972229,154.721634 441.995056,109.137314 450.005096,63.550804 
	C450.552338,60.436100 451.416107,57.374565 451.904663,54.252628 
	C452.490845,50.507339 454.334412,48.534077 459.117188,48.978149 
	C475.353546,50.551991 487.880096,58.338840 498.109894,69.059647 
	C503.760986,74.981964 506.809326,83.380325 511.100067,90.621552 
	C511.466156,91.239372 512.354370,91.547813 513.000000,92.000000 
	C513.000000,106.354225 513.000000,120.708458 513.000000,135.531342 
z"/>
<path fill="#000000" opacity="1.000000" stroke="none" 
	d="
M148.886383,94.572098 
	C139.686905,96.260193 130.549103,97.383308 121.450554,98.764923 
	C110.709351,100.395988 99.958473,102.022194 89.289856,104.059311 
	C71.203621,107.512779 52.654926,109.281738 35.684822,117.164795 
	C19.005281,124.912888 8.037362,137.705139 3.099633,155.536880 
	C2.855507,156.418503 2.211377,157.189362 1.376755,158.005905 
	C1.000000,105.736969 1.000000,53.473934 1.000000,1.000000 
	C57.020718,1.000000 113.041702,1.000000 169.531342,1.000001 
	C169.780441,1.712947 169.787491,2.775046 169.307419,3.086601 
	C161.801361,7.958055 161.394287,16.039410 160.032196,23.614086 
	C157.438293,38.038921 154.895172,52.475445 152.581177,66.947121 
	C151.138855,75.967346 150.155045,85.060875 148.886383,94.572098 
z"/>
<path fill="#2D3E50" opacity="1.000000" stroke="none" 
	d="
M415.070190,453.202545 
	C413.610840,458.251434 410.195953,461.780670 405.308350,462.945587 
	C394.076416,465.622498 382.744873,467.929626 371.385406,470.014465 
	C336.622864,476.394592 301.833435,482.628784 267.044312,488.863159 
	C233.231659,494.922607 199.412979,500.949005 165.582397,506.907288 
	C156.640518,508.482086 147.642563,509.737427 138.679596,511.196228 
	C138.117569,511.287720 137.636215,511.874969 137.058655,512.615784 
	C123.979103,513.000000 110.958214,513.000000 97.428795,512.633057 
	C95.614807,511.675507 94.359261,510.910339 92.996376,510.520477 
	C73.506592,504.945587 59.905922,492.971313 53.454544,473.581604 
	C51.220779,466.867920 49.903511,459.849335 48.167622,452.970001 
	C49.108284,451.296234 50.757195,449.674072 50.883465,447.940948 
	C52.807426,421.532654 66.606377,403.582855 90.143112,392.642273 
	C92.883522,391.368469 96.256584,391.455688 99.739929,390.945465 
	C100.143524,390.979004 100.010681,390.941772 100.170609,391.123718 
	C100.547935,391.544800 100.777534,391.771576 101.266052,392.210388 
	C105.344574,398.337311 111.199730,400.732819 117.801727,401.840271 
	C134.309860,404.609528 150.830307,407.309448 167.311768,410.229370 
	C169.892868,410.686646 172.295700,412.150177 174.403381,413.245178 
	C153.835052,416.610748 133.614014,419.706055 113.466476,423.222534 
	C103.578506,424.948303 94.285599,428.494659 89.167328,438.002380 
	C84.055443,447.498260 83.950012,457.344147 90.231003,466.357697 
	C97.272499,476.462616 107.775085,479.355865 119.333496,477.439941 
	C145.909164,473.034668 172.391632,468.069611 198.925751,463.410553 
	C234.463882,457.170502 270.024292,451.057007 305.553345,444.766083 
	C313.205231,443.411224 320.764160,441.531342 328.803162,439.924072 
	C336.632660,440.794281 344.070282,441.350708 351.408447,442.527344 
	C371.501007,445.749084 391.326385,450.985840 411.947144,450.103973 
	C413.285278,450.046753 414.682281,451.367371 416.051880,452.047028 
	C416.051880,452.047028 416.006073,452.010223 415.770630,452.103271 
	C415.380219,452.531708 415.225220,452.867126 415.070190,453.202545 
z"/>
<path fill="#000000" opacity="1.000000" stroke="none" 
	d="
M48.110695,452.555542 
	C49.903511,459.849335 51.220779,466.867920 53.454544,473.581604 
	C59.905922,492.971313 73.506592,504.945587 92.996376,510.520477 
	C94.359261,510.910339 95.614807,511.675507 96.960136,512.633057 
	C65.033676,513.000000 33.067352,513.000000 1.000000,513.000000 
	C1.000000,406.645782 1.000000,300.291565 1.000001,193.468658 
	C1.952338,195.381317 3.353532,197.683441 3.789855,200.155823 
	C10.627840,238.902420 17.278873,277.681976 24.104074,316.430878 
	C29.234901,345.560242 34.599384,374.648376 39.768543,403.771088 
	C42.627300,419.877167 45.298195,436.016663 48.110695,452.555542 
z"/>
<path fill="#000000" opacity="1.000000" stroke="none" 
	d="
M513.000000,91.531342 
	C512.354370,91.547813 511.466156,91.239372 511.100067,90.621552 
	C506.809326,83.380325 503.760986,74.981964 498.109894,69.059647 
	C487.880096,58.338840 475.353546,50.551991 459.533508,48.966354 
	C451.381073,47.313503 443.674500,45.495815 435.900024,44.040859 
	C417.623199,40.620426 399.331451,37.272758 381.013275,34.081966 
	C359.138092,30.271580 337.206360,26.784092 315.341187,22.918802 
	C293.816620,19.113728 272.363220,14.906934 250.843567,11.073011 
	C234.771759,8.209674 218.642334,5.670377 202.547836,2.932293 
	C201.826279,2.809541 201.196609,2.146732 200.762070,1.367736 
	C304.886993,1.000000 408.774017,1.000000 513.000000,1.000000 
	C513.000000,31.020044 513.000000,61.041363 513.000000,91.531342 
z"/>
<path fill="#813035" opacity="1.000000" stroke="none" 
	d="
M174.780960,413.148407 
	C172.295700,412.150177 169.892868,410.686646 167.311768,410.229370 
	C150.830307,407.309448 134.309860,404.609528 117.801727,401.840271 
	C111.199730,400.732819 105.344574,398.337311 101.147224,391.991516 
	C100.598778,391.251862 100.341782,391.049713 100.010681,390.941772 
	C100.010681,390.941772 100.143524,390.979004 100.184731,390.921661 
	C100.113159,389.214844 99.952927,387.566986 99.895187,385.915588 
	C99.484055,374.156067 103.220573,369.400543 114.721352,366.822449 
	C116.293808,366.469940 117.769417,365.685425 119.665436,365.293335 
	C121.331085,366.265381 122.536964,367.501282 123.923683,367.757141 
	C149.942444,372.558502 175.968658,377.322723 202.021286,381.936676 
	C256.094543,391.513184 310.171265,401.071533 364.276550,410.464783 
	C377.205933,412.709442 390.201752,415.006073 403.262207,415.923431 
	C413.612457,416.650452 421.614807,410.815186 425.971008,401.555084 
	C429.929993,393.139435 430.065155,384.262756 425.253357,375.726196 
	C420.465363,367.231934 412.525421,363.742218 403.613586,362.133759 
	C373.161072,356.637482 342.668549,351.363190 312.192871,345.995056 
	C272.860291,339.066864 233.557022,331.966736 194.186630,325.260651 
	C172.213928,321.517975 150.130753,318.423798 128.097366,315.037384 
	C127.603981,314.603363 127.176628,314.034973 126.607407,313.755280 
	C116.829659,308.951233 112.784721,304.970703 115.904037,287.281525 
	C123.452965,277.828552 133.297791,278.601318 143.179520,280.345123 
	C181.219467,287.058167 219.215530,294.020203 257.259979,300.707153 
	C303.833954,308.893250 350.440155,316.895782 397.031250,324.984344 
	C397.848419,325.126221 398.650970,325.352600 399.826355,325.711578 
	C402.008698,326.577698 403.772064,327.644562 405.649048,327.910980 
	C445.301331,333.539154 463.156158,361.784546 463.992188,395.388733 
	C464.016602,396.369934 464.271393,397.345337 464.676941,398.641785 
	C463.038940,409.535828 458.840973,419.041534 452.267914,427.600616 
	C443.787750,438.643097 433.567383,446.966644 419.663147,450.084412 
	C418.603821,450.321960 417.677795,451.154266 416.370850,451.878601 
	C414.682281,451.367371 413.285278,450.046753 411.947144,450.103973 
	C391.326385,450.985840 371.501007,445.749084 351.408447,442.527344 
	C344.070282,441.350708 336.632660,440.794281 328.592468,439.590149 
	C318.163239,437.399689 308.407379,435.422211 298.596161,433.774628 
	C257.333466,426.845520 216.054169,420.015015 174.780960,413.148407 
z"/>
<path fill="#EBEEEF" opacity="1.000000" stroke="none" 
	d="
M189.876038,245.123810 
	C185.211838,244.193359 180.921936,243.522720 176.755676,242.395264 
	C172.298431,241.189072 169.279495,238.288986 169.933914,233.353561 
	C171.594315,220.831451 173.391296,208.322525 175.430084,195.856796 
	C177.794006,181.403015 180.471558,167.000488 183.020721,152.577087 
	C183.368423,150.609772 183.638397,148.617554 184.154495,146.693222 
	C186.039078,139.666351 189.234848,137.077301 196.397781,138.158417 
	C213.174408,140.690521 229.902679,143.560760 246.615952,146.491302 
	C282.190979,152.729111 317.739105,159.120331 353.310272,165.380371 
	C360.355347,166.620209 367.472961,167.445312 374.523712,168.656219 
	C383.125793,170.133591 386.049377,173.251358 384.986237,181.950180 
	C383.433380,194.656113 381.006012,207.258865 378.817993,219.882477 
	C376.316528,234.314468 373.700104,248.726883 371.050415,263.132507 
	C370.663483,265.236237 369.894775,267.283875 369.162811,269.306854 
	C367.878998,272.855042 365.447510,274.722992 361.516418,274.163208 
	C347.374817,272.149628 333.177032,270.463959 319.103149,268.054688 
	C286.950470,262.550537 254.858109,256.694092 222.741959,250.976639 
	C211.928421,249.051559 201.117096,247.114243 189.876038,245.123810 
z"/>
<path fill="#435B6A" opacity="1.000000" stroke="none" 
	d="
M211.409454,41.523361 
	C262.514557,50.581963 313.181122,59.546230 363.852692,68.481949 
	C374.673462,70.390152 385.531952,72.090881 396.331329,74.110313 
	C399.563995,74.714806 402.729858,75.891922 405.793121,77.135025 
	C410.119293,78.890640 411.661957,82.141747 410.543732,86.798012 
	C409.419708,91.478561 406.568787,93.765518 401.893494,93.110260 
	C387.560883,91.101479 373.207306,89.176010 358.949921,86.709259 
	C312.023987,78.590332 265.135345,70.255959 218.236923,61.978550 
	C212.504150,60.966736 206.752090,59.995182 201.094330,58.646744 
	C195.525131,57.319408 193.222427,53.543095 193.929367,47.820412 
	C194.409973,43.930019 198.023911,41.053738 203.009964,40.920658 
	C205.657898,40.849979 208.318054,41.237915 211.409454,41.523361 
z"/>
<path fill="#435B6A" opacity="1.000000" stroke="none" 
	d="
M227.611053,90.128677 
	C242.954544,92.473343 257.906097,94.779518 272.822266,97.295563 
	C301.365326,102.110184 329.886597,107.053757 358.420807,111.921074 
	C364.637390,112.981483 367.745941,115.732079 368.244202,120.782494 
	C368.848175,126.904266 365.061310,131.519440 358.942139,130.818924 
	C348.716675,129.648331 338.564453,127.788734 328.411346,126.044632 
	C297.586456,120.749527 266.771759,115.394455 235.966187,109.988182 
	C232.879730,109.446518 229.684448,108.810844 226.894257,107.477058 
	C223.451843,105.831505 220.101318,103.562416 220.284637,98.949509 
	C220.464935,94.411995 223.003906,91.612740 227.611053,90.128677 
z"/>
<path fill="#F7E7AE" opacity="1.000000" stroke="none" 
	d="
M127.998734,315.425415 
	C150.130753,318.423798 172.213928,321.517975 194.186630,325.260651 
	C233.557022,331.966736 272.860291,339.066864 312.192871,345.995056 
	C342.668549,351.363190 373.161072,356.637482 403.613586,362.133759 
	C412.525421,363.742218 420.465363,367.231934 425.253357,375.726196 
	C430.065155,384.262756 429.929993,393.139435 425.971008,401.555084 
	C421.614807,410.815186 413.612457,416.650452 403.262207,415.923431 
	C390.201752,415.006073 377.205933,412.709442 364.276550,410.464783 
	C310.171265,401.071533 256.094543,391.513184 202.021286,381.936676 
	C175.968658,377.322723 149.942444,372.558502 123.923683,367.757141 
	C122.536964,367.501282 121.331085,366.265381 119.962128,365.067871 
	C122.555527,348.371155 125.227814,332.092285 127.998734,315.425415 
z"/>
<path fill="#813035" opacity="1.000000" stroke="none" 
	d="
M415.322083,453.083618 
	C415.225220,452.867126 415.380219,452.531708 415.799744,452.099396 
	C415.900848,452.323212 415.737396,452.643951 415.322083,453.083618 
z"/>
<path fill="#F6E7AE" opacity="1.000000" stroke="none" 
	d="
M174.403381,413.245178 
	C216.054169,420.015015 257.333466,426.845520 298.596161,433.774628 
	C308.407379,435.422211 318.163239,437.399689 328.155212,439.559387 
	C320.764160,441.531342 313.205231,443.411224 305.553345,444.766083 
	C270.024292,451.057007 234.463882,457.170502 198.925751,463.410553 
	C172.391632,468.069611 145.909164,473.034668 119.333496,477.439941 
	C107.775085,479.355865 97.272499,476.462616 90.231003,466.357697 
	C83.950012,457.344147 84.055443,447.498260 89.167328,438.002380 
	C94.285599,428.494659 103.578506,424.948303 113.466476,423.222534 
	C133.614014,419.706055 153.835052,416.610748 174.403381,413.245178 
z"/>
<path fill="#35495D" opacity="1.000000" stroke="none" 
	d="
M100.170609,391.123718 
	C100.341782,391.049713 100.598778,391.251862 100.900497,391.767090 
	C100.777534,391.771576 100.547935,391.544800 100.170609,391.123718 
z"/>
</svg>